<svg width="295" height="71" viewBox="0 0 295 71" fill="none" xmlns="http://www.w3.org/2000/svg">
<path d="M50.6691 58.5654L3.08913 25.9779C-1.73252 22.6757 -0.0934774 15.8 5.919 14.1831L56.488 0.555613C57.5592 0.171831 58.7071 0.0472476 59.8366 0.192213C60.9659 0.337178 62.0443 0.747504 62.9821 1.38914C63.9197 2.03078 64.6898 2.88522 65.2282 3.88154C65.7666 4.87786 66.0581 5.98734 66.0783 7.11788L63.0813 53.3303C62.7259 58.8155 55.4908 61.8676 50.6691 58.5654Z" fill="#E9327C"/>
<path d="M35.5783 66.6102L7.54739 12.1819C6.90662 10.9368 6.62467 9.5401 6.73259 8.14593C6.8405 6.75177 7.33412 5.41427 8.15898 4.28096C8.98386 3.14765 10.1079 2.26254 11.4073 1.72323C12.7066 1.18392 14.1307 1.01139 15.5225 1.22466L67.4707 9.1852C68.6665 9.36851 69.8017 9.83105 70.7827 10.5348C71.7635 11.2386 72.562 12.1635 73.1129 13.2334C73.6635 14.3034 73.9507 15.4878 73.9504 16.6894C73.9502 17.891 73.6627 19.0754 73.1118 20.1451L49.1813 66.6128C48.5386 67.8544 47.5637 68.8962 46.3636 69.6233C45.1635 70.3506 43.7849 70.735 42.379 70.7348C40.9731 70.7345 39.5945 70.3495 38.3946 69.6219C37.1948 68.8941 36.2204 67.8521 35.5783 66.6102Z" fill="#1DACE3"/>
<path d="M65.951 8.95076L40.0551 4.98233L8.26086 13.5538L20.9515 38.2044L50.6691 58.5654C51.3247 59.0096 52.0459 59.3498 52.8068 59.5739L64.0944 37.6567L65.951 8.95076Z" fill="#001A49"/>
<path d="M288.02 26.9553C291.346 26.9553 294.041 24.279 294.041 20.9777C294.041 17.6763 291.346 15 288.02 15C284.695 15 282 17.6763 282 20.9777C282 24.279 284.695 26.9553 288.02 26.9553Z" fill="#FAFBFE"/>
<path d="M94.7122 50V20.1818H115.067V26.0348H101.919V32.1499H113.771V38.0174H101.919V50H94.7122ZM121.566 50V27.6364H128.685V50H121.566ZM125.133 25.0302C124.133 25.0302 123.274 24.7002 122.556 24.0401C121.837 23.3704 121.478 22.5647 121.478 21.6232C121.478 20.6914 121.837 19.8955 122.556 19.2354C123.274 18.5657 124.133 18.2308 125.133 18.2308C126.142 18.2308 127.001 18.5657 127.71 19.2354C128.428 19.8955 128.787 20.6914 128.787 21.6232C128.787 22.5647 128.428 23.3704 127.71 24.0401C127.001 24.7002 126.142 25.0302 125.133 25.0302ZM136.087 50V27.6364H143.003V31.7131H143.236C143.643 30.2377 144.308 29.1409 145.23 28.4226C146.153 27.6946 147.225 27.3306 148.448 27.3306C148.778 27.3306 149.118 27.3549 149.467 27.4034C149.817 27.4422 150.142 27.5053 150.443 27.5927V33.7805C150.103 33.6641 149.657 33.5719 149.103 33.5039C148.56 33.436 148.074 33.402 147.647 33.402C146.803 33.402 146.041 33.5913 145.362 33.9698C144.692 34.3387 144.163 34.858 143.775 35.5277C143.396 36.1877 143.207 36.9643 143.207 37.8572V50H136.087ZM165.507 50.4222C163.167 50.4222 161.148 49.9612 159.45 49.0391C157.761 48.1072 156.46 46.7823 155.548 45.0643C154.645 43.3365 154.194 41.2836 154.194 38.9055C154.194 36.5954 154.65 34.5765 155.562 32.8487C156.475 31.1113 157.761 29.7621 159.421 28.8011C161.08 27.8305 163.036 27.3452 165.288 27.3452C166.88 27.3452 168.336 27.5927 169.656 28.0877C170.976 28.5827 172.117 29.3156 173.078 30.2862C174.039 31.2569 174.786 32.4556 175.32 33.8825C175.854 35.2996 176.121 36.9254 176.121 38.7599V40.5362H156.683V36.4013H169.496C169.486 35.6442 169.307 34.9696 168.957 34.3775C168.608 33.7854 168.127 33.3243 167.516 32.9943C166.914 32.6546 166.22 32.4847 165.434 32.4847C164.638 32.4847 163.924 32.6643 163.293 33.0234C162.663 33.3729 162.163 33.8533 161.794 34.4648C161.425 35.0666 161.231 35.7509 161.211 36.5178V40.7255C161.211 41.6379 161.391 42.4387 161.75 43.1278C162.109 43.8073 162.619 44.3363 163.279 44.7148C163.939 45.0934 164.725 45.2827 165.638 45.2827C166.268 45.2827 166.841 45.1953 167.356 45.0206C167.87 44.8459 168.312 44.5887 168.681 44.2489C169.049 43.9092 169.326 43.4918 169.51 42.9968L176.048 43.1861C175.776 44.6518 175.179 45.9281 174.257 47.0153C173.344 48.0927 172.146 48.9323 170.661 49.5341C169.176 50.1262 167.458 50.4222 165.507 50.4222ZM202.195 29.9222C202.03 29.3107 201.787 28.772 201.467 28.3061C201.147 27.8305 200.754 27.4277 200.288 27.0977C199.822 26.7676 199.288 26.5201 198.686 26.3551C198.084 26.1804 197.424 26.093 196.706 26.093C195.26 26.093 194.008 26.4425 192.95 27.1413C191.901 27.8402 191.091 28.8594 190.518 30.1989C189.945 31.5286 189.659 33.1448 189.659 35.0472C189.659 36.9594 189.936 38.5901 190.489 39.9393C191.042 41.2885 191.843 42.3174 192.891 43.0259C193.94 43.7345 195.211 44.0888 196.706 44.0888C198.026 44.0888 199.142 43.8752 200.055 43.4482C200.977 43.0114 201.676 42.395 202.151 41.5991C202.627 40.8031 202.865 39.8665 202.865 38.7891L204.204 38.9492H196.954V33.6932H209.81V37.6388C209.81 40.3081 209.242 42.594 208.106 44.4964C206.98 46.3989 205.427 47.8597 203.447 48.8789C201.477 49.8981 199.21 50.4077 196.648 50.4077C193.804 50.4077 191.304 49.7913 189.15 48.5586C186.995 47.3259 185.315 45.569 184.112 43.288C182.908 40.9973 182.306 38.2795 182.306 35.1346C182.306 32.6886 182.67 30.5192 183.398 28.6264C184.126 26.724 185.141 25.1127 186.441 23.7926C187.752 22.4725 189.266 21.4728 190.984 20.7933C192.712 20.1139 194.571 19.7741 196.56 19.7741C198.288 19.7741 199.895 20.0217 201.38 20.5167C202.874 21.0117 204.195 21.7106 205.34 22.6133C206.495 23.516 207.432 24.5885 208.15 25.831C208.868 27.0734 209.315 28.4371 209.489 29.9222H202.195ZM216.927 50V27.6364H223.843V31.7131H224.076C224.484 30.2377 225.149 29.1409 226.071 28.4226C226.993 27.6946 228.066 27.3306 229.289 27.3306C229.619 27.3306 229.958 27.3549 230.308 27.4034C230.657 27.4422 230.982 27.5053 231.283 27.5927V33.7805C230.944 33.6641 230.497 33.5719 229.944 33.5039C229.4 33.436 228.915 33.402 228.488 33.402C227.643 33.402 226.881 33.5913 226.202 33.9698C225.532 34.3387 225.003 34.858 224.615 35.5277C224.236 36.1877 224.047 36.9643 224.047 37.8572V50H216.927ZM237.054 50V27.6364H244.174V50H237.054ZM240.621 25.0302C239.622 25.0302 238.763 24.7002 238.044 24.0401C237.326 23.3704 236.967 22.5647 236.967 21.6232C236.967 20.6914 237.326 19.8955 238.044 19.2354C238.763 18.5657 239.622 18.2308 240.621 18.2308C241.631 18.2308 242.49 18.5657 243.198 19.2354C243.917 19.8955 244.276 20.6914 244.276 21.6232C244.276 22.5647 243.917 23.3704 243.198 24.0401C242.49 24.7002 241.631 25.0302 240.621 25.0302ZM259.744 50.3203C258.094 50.3203 256.594 49.8932 255.245 49.0391C253.896 48.1849 252.818 46.9036 252.012 45.1953C251.207 43.487 250.804 41.3661 250.804 38.8327C250.804 36.2023 251.221 34.0378 252.056 32.3391C252.891 30.6405 253.983 29.3835 255.332 28.5682C256.691 27.7528 258.152 27.3452 259.715 27.3452C260.889 27.3452 261.894 27.549 262.728 27.9567C263.563 28.3546 264.252 28.8691 264.796 29.5C265.339 30.1309 265.752 30.7861 266.033 31.4656H266.179V20.1818H273.299V50H266.252V46.3746H266.033C265.733 47.0638 265.305 47.7093 264.752 48.3111C264.199 48.9129 263.505 49.3982 262.67 49.767C261.845 50.1359 260.87 50.3203 259.744 50.3203ZM262.219 44.7731C263.083 44.7731 263.82 44.5304 264.432 44.0451C265.043 43.5501 265.514 42.8561 265.844 41.9631C266.174 41.0701 266.339 40.0218 266.339 38.8182C266.339 37.5952 266.174 36.542 265.844 35.6587C265.524 34.7754 265.053 34.096 264.432 33.6204C263.82 33.1448 263.083 32.907 262.219 32.907C261.335 32.907 260.588 33.1496 259.977 33.6349C259.365 34.1203 258.899 34.8046 258.579 35.6879C258.268 36.5711 258.113 37.6146 258.113 38.8182C258.113 40.0218 258.273 41.0701 258.593 41.9631C258.914 42.8561 259.375 43.5501 259.977 44.0451C260.588 44.5304 261.335 44.7731 262.219 44.7731Z" fill="#FAFCFF"/>
<path d="M92.4555 58.1534H275.555V60.9489H92.4555V58.1534Z" fill="#FAFCFF"/>
</svg>
