<svg width="366" height="79" viewBox="0 0 366 79" fill="none" xmlns="http://www.w3.org/2000/svg">
<path d="M55.6691 62.5654L8.08913 29.9779C3.26748 26.6757 4.90652 19.8 10.919 18.1831L61.488 4.55561C62.5592 4.17183 63.7071 4.04725 64.8366 4.19221C65.9659 4.33718 67.0443 4.7475 67.9821 5.38914C68.9197 6.03078 69.6899 6.88522 70.2282 7.88154C70.7666 8.87786 71.0581 9.98734 71.0783 11.1179L68.0813 57.3303C67.7259 62.8155 60.4908 65.8676 55.6691 62.5654Z" fill="#E9327C"/>
<path d="M40.5783 70.6102L12.5474 16.1819C11.9066 14.9368 11.6247 13.5401 11.7326 12.1459C11.8405 10.7518 12.3341 9.41427 13.159 8.28096C13.9839 7.14765 15.1079 6.26254 16.4073 5.72323C17.7066 5.18392 19.1307 5.01139 20.5225 5.22466L72.4707 13.1852C73.6665 13.3685 74.8017 13.8311 75.7827 14.5348C76.7635 15.2386 77.562 16.1635 78.1129 17.2334C78.6635 18.3034 78.9507 19.4878 78.9504 20.6894C78.9502 21.891 78.6627 23.0754 78.1118 24.1451L54.1813 70.6128C53.5386 71.8544 52.5637 72.8962 51.3636 73.6233C50.1635 74.3506 48.7849 74.735 47.379 74.7348C45.9731 74.7345 44.5945 74.3495 43.3946 73.6219C42.1948 72.8941 41.2204 71.8521 40.5783 70.6102Z" fill="#1DACE3"/>
<path d="M70.951 12.9508L45.0551 8.98233L13.2609 17.5538L25.9515 42.2044L55.6691 62.5654C56.3247 63.0096 57.0459 63.3498 57.8068 63.5739L69.0944 41.6567L70.951 12.9508Z" fill="#001A49"/>
<path d="M293.02 30.9553C296.346 30.9553 299.041 28.279 299.041 24.9777C299.041 21.6763 296.346 19 293.02 19C289.695 19 287 21.6763 287 24.9777C287 28.279 289.695 30.9553 293.02 30.9553Z" fill="#001A49"/>
<path d="M99.7122 54V24.1818H120.067V30.0348H106.919V36.1499H118.771V42.0174H106.919V54H99.7122ZM126.566 54V31.6364H133.685V54H126.566ZM130.133 29.0302C129.133 29.0302 128.274 28.7002 127.556 28.0401C126.837 27.3704 126.478 26.5647 126.478 25.6232C126.478 24.6914 126.837 23.8955 127.556 23.2354C128.274 22.5657 129.133 22.2308 130.133 22.2308C131.142 22.2308 132.001 22.5657 132.71 23.2354C133.428 23.8955 133.787 24.6914 133.787 25.6232C133.787 26.5647 133.428 27.3704 132.71 28.0401C132.001 28.7002 131.142 29.0302 130.133 29.0302ZM141.087 54V31.6364H148.003V35.7131H148.236C148.643 34.2377 149.308 33.1409 150.23 32.4226C151.153 31.6946 152.225 31.3306 153.448 31.3306C153.778 31.3306 154.118 31.3549 154.467 31.4034C154.817 31.4422 155.142 31.5053 155.443 31.5927V37.7805C155.103 37.6641 154.657 37.5719 154.103 37.5039C153.56 37.436 153.074 37.402 152.647 37.402C151.803 37.402 151.041 37.5913 150.362 37.9698C149.692 38.3387 149.163 38.858 148.775 39.5277C148.396 40.1877 148.207 40.9643 148.207 41.8572V54H141.087ZM170.507 54.4222C168.167 54.4222 166.148 53.9612 164.45 53.0391C162.761 52.1072 161.46 50.7823 160.548 49.0643C159.645 47.3365 159.194 45.2836 159.194 42.9055C159.194 40.5954 159.65 38.5765 160.562 36.8487C161.475 35.1113 162.761 33.7621 164.421 32.8011C166.08 31.8305 168.036 31.3452 170.288 31.3452C171.88 31.3452 173.336 31.5927 174.656 32.0877C175.976 32.5827 177.117 33.3156 178.078 34.2862C179.039 35.2569 179.786 36.4556 180.32 37.8825C180.854 39.2996 181.121 40.9254 181.121 42.7599V44.5362H161.683V40.4013H174.496C174.486 39.6442 174.307 38.9696 173.957 38.3775C173.608 37.7854 173.127 37.3243 172.516 36.9943C171.914 36.6546 171.22 36.4847 170.434 36.4847C169.638 36.4847 168.924 36.6643 168.293 37.0234C167.663 37.3729 167.163 37.8533 166.794 38.4648C166.425 39.0666 166.231 39.7509 166.211 40.5178V44.7255C166.211 45.6379 166.391 46.4387 166.75 47.1278C167.109 47.8073 167.619 48.3363 168.279 48.7148C168.939 49.0934 169.725 49.2827 170.638 49.2827C171.268 49.2827 171.841 49.1953 172.356 49.0206C172.87 48.8459 173.312 48.5887 173.681 48.2489C174.049 47.9092 174.326 47.4918 174.51 46.9968L181.048 47.1861C180.776 48.6518 180.179 49.9281 179.257 51.0153C178.344 52.0927 177.146 52.9323 175.661 53.5341C174.176 54.1262 172.458 54.4222 170.507 54.4222ZM207.195 33.9222C207.03 33.3107 206.787 32.772 206.467 32.3061C206.147 31.8305 205.754 31.4277 205.288 31.0977C204.822 30.7676 204.288 30.5201 203.686 30.3551C203.084 30.1804 202.424 30.093 201.706 30.093C200.26 30.093 199.008 30.4425 197.95 31.1413C196.901 31.8402 196.091 32.8594 195.518 34.1989C194.945 35.5286 194.659 37.1448 194.659 39.0472C194.659 40.9594 194.936 42.5901 195.489 43.9393C196.042 45.2885 196.843 46.3174 197.891 47.0259C198.94 47.7345 200.211 48.0888 201.706 48.0888C203.026 48.0888 204.142 47.8752 205.055 47.4482C205.977 47.0114 206.676 46.395 207.151 45.5991C207.627 44.8031 207.865 43.8665 207.865 42.7891L209.204 42.9492H201.954V37.6932H214.81V41.6388C214.81 44.3081 214.242 46.594 213.106 48.4964C211.98 50.3989 210.427 51.8597 208.447 52.8789C206.477 53.8981 204.21 54.4077 201.648 54.4077C198.804 54.4077 196.304 53.7913 194.15 52.5586C191.995 51.3259 190.315 49.569 189.112 47.288C187.908 44.9973 187.306 42.2795 187.306 39.1346C187.306 36.6886 187.67 34.5192 188.398 32.6264C189.126 30.724 190.141 29.1127 191.441 27.7926C192.752 26.4725 194.266 25.4728 195.984 24.7933C197.712 24.1139 199.571 23.7741 201.56 23.7741C203.288 23.7741 204.895 24.0217 206.38 24.5167C207.874 25.0117 209.195 25.7106 210.34 26.6133C211.495 27.516 212.432 28.5885 213.15 29.831C213.868 31.0734 214.315 32.4371 214.489 33.9222H207.195ZM221.927 54V31.6364H228.843V35.7131H229.076C229.484 34.2377 230.149 33.1409 231.071 32.4226C231.993 31.6946 233.066 31.3306 234.289 31.3306C234.619 31.3306 234.958 31.3549 235.308 31.4034C235.657 31.4422 235.982 31.5053 236.283 31.5927V37.7805C235.944 37.6641 235.497 37.5719 234.944 37.5039C234.4 37.436 233.915 37.402 233.488 37.402C232.643 37.402 231.881 37.5913 231.202 37.9698C230.532 38.3387 230.003 38.858 229.615 39.5277C229.236 40.1877 229.047 40.9643 229.047 41.8572V54H221.927ZM242.054 54V31.6364H249.174V54H242.054ZM245.621 29.0302C244.622 29.0302 243.763 28.7002 243.044 28.0401C242.326 27.3704 241.967 26.5647 241.967 25.6232C241.967 24.6914 242.326 23.8955 243.044 23.2354C243.763 22.5657 244.622 22.2308 245.621 22.2308C246.631 22.2308 247.49 22.5657 248.198 23.2354C248.917 23.8955 249.276 24.6914 249.276 25.6232C249.276 26.5647 248.917 27.3704 248.198 28.0401C247.49 28.7002 246.631 29.0302 245.621 29.0302ZM264.744 54.3203C263.094 54.3203 261.594 53.8932 260.245 53.0391C258.896 52.1849 257.818 50.9036 257.012 49.1953C256.207 47.487 255.804 45.3661 255.804 42.8327C255.804 40.2023 256.221 38.0378 257.056 36.3391C257.891 34.6405 258.983 33.3835 260.332 32.5682C261.691 31.7528 263.152 31.3452 264.715 31.3452C265.889 31.3452 266.894 31.549 267.728 31.9567C268.563 32.3546 269.252 32.8691 269.796 33.5C270.339 34.1309 270.752 34.7861 271.033 35.4656H271.179V24.1818H278.299V54H271.252V50.3746H271.033C270.733 51.0638 270.305 51.7093 269.752 52.3111C269.199 52.9129 268.505 53.3982 267.67 53.767C266.845 54.1359 265.87 54.3203 264.744 54.3203ZM267.219 48.7731C268.083 48.7731 268.82 48.5304 269.432 48.0451C270.043 47.5501 270.514 46.8561 270.844 45.9631C271.174 45.0701 271.339 44.0218 271.339 42.8182C271.339 41.5952 271.174 40.542 270.844 39.6587C270.524 38.7754 270.053 38.096 269.432 37.6204C268.82 37.1448 268.083 36.907 267.219 36.907C266.335 36.907 265.588 37.1496 264.977 37.6349C264.365 38.1203 263.899 38.8046 263.579 39.6879C263.268 40.5711 263.113 41.6146 263.113 42.8182C263.113 44.0218 263.273 45.0701 263.593 45.9631C263.914 46.8561 264.375 47.5501 264.977 48.0451C265.588 48.5304 266.335 48.7731 267.219 48.7731Z" fill="#001A49"/>
</svg>
